<svg width="15" height="15" viewBox="0 0 15 15" fill="none" xmlns="http://www.w3.org/2000/svg">
<path fill-rule="evenodd" clip-rule="evenodd" d="M5.63322 0.162183C2.98418 0.886864 0.943718 2.92622 0.219081 5.57325C-0.109081 6.77198 -0.0633427 8.70305 0.321139 9.88128C1.03108 12.0566 2.75349 13.8221 5.01687 14.6945C5.73881 14.9727 5.96185 15 7.51448 15C9.0671 15 9.29015 14.9727 10.0121 14.6945C12.3043 13.8111 14.0205 12.0351 14.7199 9.82236C15.0934 8.64131 15.0934 6.40787 14.7199 5.22682C14.019 3.00989 12.2812 1.21444 10.0121 0.362737C9.00102 -0.0168076 6.67661 -0.123212 5.63322 0.162183ZM6.18984 5.31331L7.51448 6.63694L8.83912 5.31331C9.59844 4.55434 10.2592 3.98956 10.3877 3.98956C10.6942 3.98956 11.0418 4.32716 11.0418 4.62457C11.0418 4.7794 10.5555 5.35832 9.72096 6.19707L8.4002 7.52459L9.72096 8.85211C10.4783 9.61309 11.0418 10.2753 11.0418 10.4041C11.0418 10.7112 10.705 11.0596 10.4082 11.0596C10.2537 11.0596 9.67604 10.5723 8.83912 9.73587L7.51448 8.41224L6.18984 9.73587C5.43052 10.4948 4.76972 11.0596 4.64121 11.0596C4.3348 11.0596 3.98712 10.722 3.98712 10.4246C3.98712 10.2698 4.47343 9.69086 5.308 8.85211L6.62876 7.52459L5.308 6.19707C4.55068 5.43609 3.98712 4.77387 3.98712 4.64507C3.98712 4.338 4.32398 3.98956 4.62075 3.98956C4.77525 3.98956 5.35291 4.47692 6.18984 5.31331Z" fill="#A9A9A9"/>
</svg>
