<svg width="15" height="16" viewBox="0 0 15 16" fill="none" xmlns="http://www.w3.org/2000/svg">
<path fill-rule="evenodd" clip-rule="evenodd" d="M5.6405 0.676802C4.33229 0.992954 3.28984 1.60375 2.20157 2.69185C0.654349 4.23866 0.00361683 5.8057 1.13425e-05 7.99354C-0.00336153 10.0332 0.745532 11.8343 2.19715 13.2779C5.17644 16.2407 9.82356 16.2407 12.8029 13.2779C14.2545 11.8343 15.0034 10.0332 15 7.99354C14.9964 5.80466 14.3453 4.23703 12.7984 2.69383C11.6663 1.56421 10.827 1.06679 9.46604 0.718777C8.39253 0.444367 6.68028 0.425531 5.6405 0.676802ZM8.77937 1.82758C12.936 2.70394 14.9946 7.19926 12.9851 11.012C11.9699 12.9385 9.75436 14.2438 7.5 14.2438C4.70517 14.2438 2.36405 12.4771 1.44535 9.67488C1.14981 8.77339 1.17389 7.07903 1.49687 6.06197C2.15656 3.9839 4.01629 2.29872 6.16248 1.83409C7.1519 1.61979 7.78658 1.61828 8.77937 1.82758ZM6.85869 4.20087C6.23971 4.32168 5.72273 4.67713 5.50814 5.12933C5.33869 5.48641 5.33531 5.57176 5.48081 5.8321C5.72959 6.2772 6.19156 6.28255 6.58165 5.84477C6.81787 5.57978 6.99977 5.48897 7.29425 5.48897C8.32193 5.48897 8.42382 6.05279 7.54199 6.8602C6.70819 7.62355 6.40917 8.46794 6.74808 9.10117C6.96837 9.51256 7.90707 9.36907 7.90707 8.92397C7.90707 8.4262 8.1548 7.95749 8.612 7.59018C9.57571 6.81602 9.82914 5.59908 9.18062 4.86062C8.69539 4.30808 7.72366 4.03192 6.85869 4.20087ZM6.62957 10.2222C6.20016 10.7679 6.60945 11.5353 7.32996 11.5353C7.71412 11.5353 8.13968 11.0687 8.13968 10.6475C8.13968 9.92975 7.09188 9.63453 6.62957 10.2222Z" fill="#666666"/>
</svg>
